<?xml version="1.0" standalone="no"?>
<!DOCTYPE svg PUBLIC "-//W3C//DTD SVG 20010904//EN"
 "http://www.w3.org/TR/2001/REC-SVG-20010904/DTD/svg10.dtd">
<svg version="1.0" xmlns="http://www.w3.org/2000/svg"
 width="521.000000pt" height="521.000000pt" viewBox="0 0 521.000000 521.000000"
 preserveAspectRatio="xMidYMid meet">
<metadata>
Created by potrace 1.11, written by Peter Selinger 2001-2013
</metadata>
<g transform="translate(0.000000,521.000000) scale(0.100000,-0.100000)"
fill="#000000" stroke="none">
<path d="M2270 5094 c-614 -55 -1022 -173 -1360 -394 -122 -80 -297 -254 -364
-363 -199 -321 -235 -707 -112 -1195 114 -447 443 -1106 891 -1782 261 -394
492 -688 720 -915 153 -153 268 -243 385 -299 80 -39 89 -41 175 -40 111 1
165 20 296 106 113 74 384 340 529 518 504 620 1028 1503 1259 2123 172 459
208 903 100 1229 -161 489 -638 818 -1379 952 -271 49 -374 57 -745 61 -192 1
-370 1 -395 -1z m785 -390 c37 -12 56 -13 96 -5 32 7 57 7 74 1 l25 -10 -2
-202 -3 -203 -39 -3 c-82 -7 -81 -9 -81 137 0 122 -1 132 -23 153 -19 20 -33
23 -98 23 -125 0 -114 72 -114 -737 l0 -689 23 -23 c46 -46 150 -43 193 5 17
19 19 41 20 258 0 131 4 243 8 249 8 13 102 17 110 4 2 -4 6 -126 8 -272 3
-250 2 -267 -17 -298 -42 -70 -204 -111 -324 -82 -66 15 -124 68 -140 125 -15
55 -15 1374 0 1430 34 128 151 185 284 139z m-976 -3 c8 -6 35 -142 78 -402
59 -358 73 -423 87 -408 3 3 37 182 76 399 39 216 75 399 81 407 8 9 40 13
109 13 111 0 123 -7 118 -67 -2 -31 -7 -39 -25 -41 -54 -8 -53 11 -53 -747 0
-385 4 -706 9 -713 4 -7 21 -16 37 -21 28 -7 29 -10 29 -62 l0 -54 -137 -3
-137 -3 -6 24 c-4 13 -5 39 -3 58 3 28 8 34 34 40 17 3 36 9 42 13 9 5 12 142
12 524 0 293 -4 512 -9 507 -4 -6 -46 -203 -92 -439 -77 -393 -93 -455 -114
-434 -2 2 -36 192 -75 423 -82 488 -78 468 -90 460 -6 -4 -10 -198 -10 -519 0
-549 -2 -530 50 -538 23 -3 25 -7 25 -58 l0 -55 -134 -3 c-147 -3 -151 -2
-151 55 0 45 9 63 32 63 11 0 28 5 39 10 19 10 19 29 19 728 0 545 -3 721 -12
730 -7 7 -24 12 -39 12 -15 0 -29 7 -33 16 -8 21 -8 79 1 87 9 10 226 8 242
-2z m1841 -1986 c0 -13 -152 -15 -1310 -15 -1158 0 -1310 2 -1310 15 0 13 152
15 1310 15 1158 0 1310 -2 1310 -15z m-1731 -229 c7 -8 11 -32 9 -52 -3 -35
-6 -39 -37 -45 -18 -4 -37 -13 -42 -21 -5 -7 -9 -329 -9 -715 0 -825 -13 -748
121 -741 66 3 82 7 101 26 22 21 23 32 28 214 l5 191 28 10 c21 7 34 5 52 -7
l25 -16 0 -258 c0 -187 -3 -261 -12 -270 -9 -9 -85 -12 -280 -12 -259 0 -268
1 -278 20 -15 28 -9 81 10 90 8 5 27 13 43 19 l27 11 0 718 c0 545 -3 721 -12
730 -7 7 -24 12 -39 12 -29 0 -39 15 -39 59 0 47 14 51 156 51 102 0 134 -3
143 -14z m1024 -5 c4 -4 6 -97 5 -207 l-3 -199 -57 -3 c-42 -2 -58 1 -58 10
-1 7 -2 65 -3 128 -3 124 -12 155 -53 170 -57 22 -155 5 -174 -30 -6 -12 -10
-276 -10 -705 l0 -687 30 -30 c29 -29 34 -30 97 -26 104 7 99 -10 105 365 3
175 1 326 -3 335 -5 9 -24 18 -42 20 -31 3 -32 4 -32 53 l0 50 86 3 c69 2 90
-1 103 -13 14 -15 16 -65 16 -447 0 -387 -2 -433 -17 -450 -18 -20 -60 -23
-96 -7 -18 8 -35 7 -71 -5 -132 -45 -266 5 -295 109 -7 27 -11 259 -11 726 0
575 2 693 15 735 15 52 52 95 95 113 27 11 359 4 373 -8z"/>
</g>
</svg>
